<?xml version="1.0" encoding="utf-8"?>
<!-- Generator: Adobe Illustrator 26.3.1, SVG Export Plug-In . SVG Version: 6.00 Build 0)  -->
<svg version="1.1" xmlns="http://www.w3.org/2000/svg" xmlns:xlink="http://www.w3.org/1999/xlink" x="0px" y="0px"
	 viewBox="0 0 700 700" style="enable-background:new 0 0 700 700;" xml:space="preserve">
<style type="text/css">
	.st0{fill:#132D02;}
	.st1{fill:#FFFFFF;}
	.st2{fill:#D6CC80;}
</style>
<g id="Capa_1">
</g>
<g id="Capa_2">
	<g>
		<circle class="st0" cx="350" cy="350" r="344.96"/>
		<g>
			<path class="st2" d="M414,327.72c16.63-0.24,10.64,4.82,20.08,18.56c4.35,6.34,11.8,11.01,18.66,15.03
				c5.24,3.07,11.91,3.93,16.67-1.99c3.11-3.87,1.43-10.24-5.38-15.79c-6.85-5.59-27.2-13.35-36.73-15.59
				c5.06,0.12,24.83,0.98,30.16,0.85c5.9-0.14,10.79,1.09,15.18,5.69c2.17,2.26,6.45,2.92,9.9,3.43c4.22,0.62,8.63-0.06,12.86,0.51
				c8.83,1.2,13.97,7.76,12.9,16.49c-1.05,8.54,1.67,15.52,7.43,21.67c9.27,9.92,21.1,11.2,33.72,10.76
				c3.05-0.11,6.19-0.76,9.3-0.87c6.97-0.26,12.86-5.21,14.06-12.08v0c5.65-2.8,10.89-6.03,16.56-7.99
				c4.25-1.46,5.41-3.77,5.91-7.82c1.1-8.92-1.85-18.27,2.87-26.85c0.68-1.23,0.21-3.12,0.21-4.7c0.02-4.25-0.13-8.51,0.04-12.76
				c0.17-4.01-13.88-22.74-17.8-23.46c-0.22-0.04-0.46-0.03-0.67-0.1c-6.02-2.06-12.49-3.31-17.97-6.35
				c-13.89-7.72-23.02-6.55-33.44,5.67c-2.2,2.58-3.98,5.5-6.03,8.21c-2.94,3.88-6.02,7.66-8.9,11.58
				c-5.73,7.79-15.39,11.26-24.89,9.39c-5.75-1.13-12.11,1.09-18.13,2.26c-3.7,0.72-15.95,2.65-19.57,3.73
				c-0.48-1.22,9.84-3.55,11.81-4.92c4.61-3.2,12.36-6.89,15.87-11.09c1.87-2.24,2.15-7.65,0.69-10.24
				c-1.13-1.99-6.22-2.74-9.33-2.34c-3.4,0.44-6.96,2.31-9.74,4.47c-7.85,6.09-15.25,12.76-23.02,18.96
				c-1.94,1.55-4.59,2.81-6.93,3.16c-14.02,2.07-50.67,13.16-64.88,15.75l-4.75,2.38C363.33,340.82,411.33,327.76,414,327.72z
				 M436.73,323.06c7.9-5.25,23.66-19.7,32.77-22.28c7.27-2.06,7.3,0.31,7.26,0.47c0.07,2.22,0.89,3.49-2.2,9.38
				c-2.48,4.72-26.38,10.58-33.05,14.74c-0.38-0.61,8.31-6.81,11.74-9.67C452.89,315.19,437.18,323.76,436.73,323.06z M548.6,341.46
				c5.99,0.18,12.02-1,18.03-1.58c0.54,9.27-2.34,14.98-9.21,18.14c-8.84,4.07-21.43,1.43-29.72-6.66
				c6.62,0.47,12.53,0.89,18.44,1.31c-7.15-2.1-14.46-3.54-20.94-6.69c-6.8-2.85-13.08-6.68-17.1-12.41
				c6.05,1.05,16.69,4.3,22.45,5.24C536.55,339.81,542.56,341.28,548.6,341.46z M564.49,326.63c1.08,2,2.07,4.37,3.01,7.11
				c-0.33,0.21-0.69,0.42-1.07,0.61c-0.09,0.05-0.2,0.09-0.29,0.14c-0.29,0.14-0.58,0.28-0.89,0.41c-0.18,0.08-0.38,0.15-0.57,0.22
				c-0.22,0.08-0.43,0.17-0.66,0.25c-13.8,4.95-45.85,2.71-58.93-6.32c-0.2-0.05-0.32-0.12-0.31-0.21c1.06,0.06,2.16,0.11,3.27,0.15
				c4.23,0.15,9.27,0.17,14.33,0.18c4.92,0,9.82,0.01,14.33,0.18c1.15,0.04,2.26,0.09,3.27,0.15c0.05-0.33,0.03-0.21,0.08-0.55
				c-0.03-0.01-0.05-0.01-0.07-0.02c-5.63-1.36-16.41-3.35-21.99-4.71c0.3-1.75,3.24-1.86,4.52-1.86c-0.02-0.05-0.03-0.09-0.03-0.13
				c1.25,0.03,2.51,0.08,3.78,0.13c2.55,0.11,5.16,0.24,7.8,0.39c2.64,0.15,5.32,0.3,8.01,0.45c2.69,0.15,5.41,0.29,8.12,0.4
				c1.36,0.05,2.71,0.1,4.06,0.14c-4.27-1.54-7.93-2.87-11.59-4.19c4.95-1.62,8.98-2.09,12.35-1.28
				C558.93,319.26,561.96,321.96,564.49,326.63z M528.98,381.19c-2.31-0.89-4.59-2.08-6.84-3.66c-5.37-3.78-8.01-8.15-9.17-12.88
				c-1.75-6.95-0.39-14.68,0.33-22.29c0.04,0.16,0.06,0.32,0.09,0.49c0-0.02,0-0.05,0.01-0.07c0.24,1.07,0.35,2.08,0.52,3.07
				c0.19,0.99,0.43,1.95,0.87,2.82c2.03,4.03,4.44,7.88,6.83,11.73c1.6,2.58,4.33,4.81,4.98,7.57c2.54,10.67,6.66,14.17,17.9,13.89
				c4.84-0.12,15.47-1.01,20.3-1.17C555.91,385.97,540.6,385.94,528.98,381.19z M568.73,379.62c-8.21-0.46-16.05-1.16-23.9-1.26
				c-9.91-0.13-12.07-2.03-14.72-11.72c-0.92-3.37-3.95-6.21-6.22-9.13c-0.6-0.78-1.25-1.52-1.91-2.25c-0.18-0.2-0.36-0.4-0.54-0.6
				c-0.61-0.66-1.23-1.32-1.85-1.98c-0.48-0.51-0.96-1.02-1.43-1.53c0,0,0.01,0,0.01-0.01c-0.97-1.06-1.91-2.15-2.75-3.31
				c9.89,6.85,22.6,14.65,32.97,21.66c0.12-0.17,0.24-0.35,0.36-0.52l-8.59-6.52c0.81,0.33,1.81,0.51,2.9,0.61
				c0.13,0.01,0.26,0.02,0.39,0.03c0.24,0.02,0.47,0.03,0.72,0.04c0.14,0.01,0.27,0.01,0.41,0.02c0.26,0.01,0.52,0.01,0.78,0.02
				c0.12,0,0.25,0,0.37,0.01c0.35,0,0.7,0,1.05,0c0.03,0,0.06,0,0.1,0c0.47,0,0.95-0.01,1.42-0.01c0.3,0,0.6,0,0.9-0.01
				c0.14,0,0.29,0,0.43,0c0.26,0,0.51,0,0.77,0.01c0.15,0,0.3,0,0.44,0.01c0.25,0.01,0.5,0.02,0.75,0.03
				c0.13,0.01,0.26,0.01,0.38,0.02c0.34,0.02,0.66,0.04,0.98,0.08c0.03,0,0.07,0,0.1,0.01c0.34,0.04,0.67,0.08,0.99,0.14
				c0.1,0.02,0.19,0.04,0.28,0.06c0.22,0.04,0.43,0.09,0.64,0.15c0.11,0.03,0.21,0.06,0.31,0.1c0.18,0.06,0.36,0.12,0.52,0.19
				c0.09,0.04,0.19,0.08,0.28,0.13c0.17,0.08,0.32,0.18,0.47,0.27c0.07,0.05,0.14,0.09,0.21,0.14c0.2,0.15,0.39,0.32,0.54,0.51
				C561.24,369.88,571.02,371.5,568.73,379.62z M588.86,362.6c-22.6,11.42-22.04,7.58-28.15-0.86c3.3-4.08,6.51-8.05,10.48-12.95
				c4.35,2.63,9.38,5.68,14.41,8.72c0.25-0.27,0.49-0.55,0.74-0.82c-4.91-4.21-9.82-8.42-14.81-12.71
				c6.37-0.68,12.84-1.37,19.45-2.08C593.23,347.62,591.94,361.05,588.86,362.6z M593.81,317.91c-0.12,1.78,0.07,3.6,0.28,5.39
				c1.35,11.64-1.87,15.56-13.69,16.34c-2.63,0.17-5.29-0.1-6.52-0.13c-0.96-3.04-1.16-5.41-2.34-7.08
				c-2.59-3.68-2.76-6.48,1.64-8.65c3.6-1.78,7.19-3.59,10.58-6.17c-5.53,1.53-11.05,3.1-16.61,4.5c-0.24,0.06-0.86-1.36-1.71-2.75
				c6.62-3.11,12.67-6.71,19.2-8.81C591.8,308.24,594.3,310.76,593.81,317.91z M590.11,306.4c-5.77,2.66-12.36,5.78-17.94,7.93
				c-4.23,1.63-11.01,2.37-15.42,2.06c-3.45-0.04-6.79-0.71-9.4-2.22c8.28-5.63,23.53-8.34,27.64-19.24
				c0.46-0.13,0.89-0.23,1.32-0.31c2.23-0.46,3.87-0.27,5.11,0.35C586.23,296.84,588.04,303.05,590.11,306.4z M566.97,288.58
				c1.63,0.52,4.23,3.14,4.43,6.29c0.14,2.15-2,4.77-3.61,5.95c-0.21,0.16-0.42,0.29-0.63,0.4c-12.26,6.51-25.15,13.22-37.52,19.53
				c-0.43-0.8-0.38-2.09-0.81-2.89c3.75-5.91,7.36-11.92,11.29-17.71C546.89,290.19,555.49,284.91,566.97,288.58z M526.54,298.85
				c4-4.25,7.5-9.06,11.89-12.83c1.53-1.31,3.2-2.28,5-2.72c3.76-1.22,8.25-1.12,11.72,1.85c-11.84,3.78-19.38,14.6-24.87,23.82
				c-6.26,10.51-14.42,17.76-28.74,17.67c1.13-1.91,1.59-3.12,2.41-3.99C511.44,314.69,519.04,306.81,526.54,298.85z M467.68,327.37
				c8.67-8.84,21.11-3.29,30.77-3.87c-1.57,4.27,3.75,8.13,2.47,11.61c-4.72-0.13-12,0.62-18.51-0.7
				C477.89,334.02,470.89,333.08,467.68,327.37z M465.62,348.78c4.45,4.38,0.74,11.17-5.54,10.37c-4.9-0.63-9.97-2.79-14.13-5.53
				c-4-2.63-11.13-11.8-13.75-16.23c3.56,2.56,10.71,9.37,14.43,11.67c3.47,2.14,10.71,5.05,14.36,6.92
				c0.36-0.69-23.14-18.02-33.64-25.64C439.74,330.05,458.97,342.23,465.62,348.78z"/>
			<g>
				<path class="st2" d="M455.6,139.39c3.94-20.41-8.89-31.77-28.63-32.79c-17.04-0.9-33.89,3.28-50.13,8.07
					c-16.3,4.93-32.12,11.35-47.5,18.64c-56.85,27.72-123.72,73.31-149.74,132.85c-10.11,23.6-10.55,50.69,2.42,73.28
					c3.98,7.41,9.39,14.09,16.56,18.57c60.65,37,198.35-73.64,238.5-118.99c2.81-3.17,5.54-6.41,8.05-9.8
					c2.33-3.25,4.98-6.84,5.89-10.66c0.38-1.87-0.54-2.62-2.25-2.17c-1.66,0.5-3.33,1.86-4.82,3.22c-3.01,2.83-5.67,6.14-8.24,9.49
					c-15.13,20.52-27.69,42.85-40.67,64.79c-42.84,73.03-83.76,149.64-136.11,216.34c-16.82,20.43-50.33,61.13-79.47,54.89
					c-23.7-5.56-20.58-29.03-13.08-46.78c24.67-56.11,88.12-114.34,139.13-147.57c35.56-22.49,76.12-42.98,119.27-40.98
					c8.52,0.56,16.99,2.25,24.97,5.32c0,0-0.11,0.28-0.11,0.28c-7.98-2.97-16.42-4.56-24.9-5.03
					c-57.03-2.07-116.56,37.37-159.15,72.35c-36.42,30.98-77.43,72.54-96.61,116.69c-5.88,14.16-10.53,35.84,8.23,41.95
					c44.05,15.74,116.02-103.89,137.44-136.86c26.18-41.64,53.23-89.15,78.19-131.87c13.09-21.98,25.74-44.32,41-64.93
					c3.64-4.42,10.37-14.06,16.33-13.68c1.49,0.13,3.01,1.47,3.13,2.98c0.8,10.04-24.83,34.33-32.5,41.84
					c-24.83,23.45-51.8,44.59-80.34,63.33c-21.46,13.93-43.93,26.64-67.95,35.65c-47.15,17.42-88.37,14.56-100.62-41.76
					c-15.48-91.77,129.12-180.02,204.76-201.95c20.26-5.83,57.16-15.63,73.7,1.24c5.99,6.35,7.34,15.83,5.52,24.12
					C455.89,139.47,455.6,139.39,455.6,139.39L455.6,139.39z"/>
			</g>
		</g>
	</g>
</g>
</svg>
