<?xml version="1.0" standalone="no"?>
<!DOCTYPE svg PUBLIC "-//W3C//DTD SVG 20010904//EN"
 "http://www.w3.org/TR/2001/REC-SVG-20010904/DTD/svg10.dtd">
<svg version="1.0" xmlns="http://www.w3.org/2000/svg"
 width="500.000000pt" height="500.000000pt" viewBox="0 0 500.000000 500.000000"
 preserveAspectRatio="xMidYMid meet">
<metadata>
Created by potrace 1.14, written by Peter Selinger 2001-2017
</metadata>
<g transform="translate(0.000000,500.000000) scale(0.100000,-0.100000)"
fill="#000000" stroke="none">
<path d="M2318 4920 c-469 -36 -904 -200 -1279 -482 -932 -700 -1236 -1975
-719 -3016 367 -739 1045 -1225 1865 -1339 147 -20 483 -20 630 0 427 59 809
216 1146 469 1028 772 1275 2220 561 3293 -387 581 -1014 972 -1702 1060 -141
18 -371 25 -502 15z m705 -707 c-7 -2 -21 -2 -30 0 -10 3 -4 5 12 5 17 0 24
-2 18 -5z m-110 -10 c-7 -2 -19 -2 -25 0 -7 3 -2 5 12 5 14 0 19 -2 13 -5z
m-56 -9 c-3 -3 -12 -4 -19 -1 -8 3 -5 6 6 6 11 1 17 -2 13 -5z m-317 -94 c-8
-5 -19 -10 -25 -10 -5 0 -3 5 5 10 8 5 20 10 25 10 6 0 3 -5 -5 -10z m-50 -20
c-8 -5 -19 -10 -25 -10 -5 0 -3 5 5 10 8 5 20 10 25 10 6 0 3 -5 -5 -10z m-80
-35 c-14 -8 -29 -14 -35 -14 -5 0 1 6 15 14 14 8 30 14 35 14 6 0 -1 -6 -15
-14z m-170 -79 c0 -2 -35 -23 -77 -47 -429 -235 -775 -583 -880 -884 -24 -70
-27 -94 -27 -200 0 -132 12 -178 76 -285 175 -291 648 -181 1290 297 236 176
265 206 358 354 79 124 163 229 201 249 25 14 49 2 49 -24 0 -39 -59 -117
-190 -251 -125 -127 -131 -135 -253 -346 -70 -118 -129 -222 -132 -231 -5 -12
14 -10 107 14 74 20 139 30 188 30 62 1 67 2 30 7 l-45 6 81 18 c76 17 85 22
183 102 104 87 128 99 176 93 37 -4 52 -29 39 -65 -11 -32 -102 -98 -149 -109
-54 -13 -8 -16 52 -3 32 6 104 14 160 18 124 8 131 13 228 139 39 50 83 100
98 113 46 35 102 36 183 1 38 -16 87 -35 109 -42 48 -15 74 -37 121 -106 l36
-52 -6 -84 c-18 -229 -22 -264 -29 -276 -5 -7 -37 -25 -72 -41 -45 -21 -68
-38 -79 -60 -25 -47 -53 -60 -147 -67 -184 -14 -302 66 -302 206 1 62 -17 104
-50 121 -12 7 -57 15 -99 19 -60 5 -86 13 -115 33 -34 23 -50 26 -163 32
l-125 6 75 -29 c141 -52 210 -106 210 -163 0 -56 -66 -75 -134 -38 -73 39
-116 81 -148 146 l-31 63 -71 0 c-72 0 -218 -27 -291 -53 -33 -11 -47 -26 -81
-83 -22 -38 -101 -170 -174 -294 -395 -668 -723 -1085 -937 -1190 -146 -72
-281 -37 -313 81 -33 121 69 345 273 599 89 110 355 372 482 473 171 137 335
242 516 331 l167 81 120 205 c66 113 118 206 117 208 -2 2 -52 -36 -112 -83
-159 -127 -413 -293 -573 -374 -464 -236 -758 -208 -879 83 -110 265 -21 548
269 850 58 60 144 142 192 182 97 81 305 222 418 283 79 43 80 43 80 37z"/>
<path d="M3148 3393 c-39 -44 -115 -151 -147 -208 -19 -33 -9 -25 61 46 77 78
148 170 148 191 0 19 -30 5 -62 -29z"/>
<path d="M3722 2833 c-73 -76 -138 -147 -143 -157 -11 -18 -8 -18 32 -12 65
10 109 46 174 143 42 62 73 95 107 116 52 32 50 46 -7 47 -26 0 -50 -20 -163
-137z"/>
<path d="M3920 2918 c-35 -18 -58 -42 -104 -111 -32 -48 -55 -91 -51 -95 10
-10 274 128 286 150 15 28 2 55 -33 67 -42 15 -47 14 -98 -11z"/>
<path d="M4067 2856 c-16 -22 -54 -48 -97 -67 -39 -18 -70 -36 -70 -40 0 -13
68 -22 113 -15 39 7 152 50 171 67 10 9 -17 56 -43 76 -26 20 -45 15 -74 -21z"/>
<path d="M3325 2836 c-30 -13 -195 -133 -195 -142 0 -2 19 5 43 16 l42 21 -30
-26 c-16 -13 -27 -25 -23 -25 3 0 48 16 100 35 100 38 128 61 128 106 0 33
-16 37 -65 15z"/>
<path d="M4092 2745 c-83 -40 -88 -60 -10 -39 29 7 53 12 55 11 1 -2 -18 -13
-43 -26 -49 -26 -51 -32 -29 -85 14 -34 18 -36 59 -36 29 0 52 7 70 21 24 19
26 27 26 93 0 109 -15 116 -128 61z"/>
<path d="M3876 2713 c-3 -4 6 -12 21 -19 24 -11 10 -12 -89 -7 -136 7 -157 -6
-45 -28 l72 -14 -115 -5 c-106 -5 -113 -6 -85 -18 105 -47 345 -56 387 -14 12
12 -13 62 -44 92 -21 20 -86 28 -102 13z"/>
<path d="M3356 2674 c-28 -16 -28 -16 -9 -36 24 -24 80 -37 156 -38 62 0 67 7
46 53 -8 17 -22 27 -48 31 -60 10 -114 6 -145 -10z"/>
<path d="M3065 2623 c6 -6 54 -43 108 -83 53 -40 97 -74 97 -76 0 -7 -73 25
-95 41 -11 8 -36 27 -55 42 l-34 28 22 -31 c70 -100 197 -148 218 -82 5 18 -2
30 -36 60 -48 43 -148 95 -200 104 -23 4 -32 3 -25 -3z"/>
<path d="M3640 2585 c30 -32 85 -62 160 -86 l55 -18 -50 -1 -50 0 34 -22 c21
-14 55 -23 91 -26 72 -5 116 15 136 65 26 62 20 66 -81 64 -80 -2 -210 18
-300 45 -18 6 -17 4 5 -21z"/>
<path d="M4101 2541 l-35 -6 47 -41 c26 -23 47 -44 47 -47 0 -4 -23 8 -51 25
l-51 32 -19 -24 c-51 -65 -53 -68 -35 -95 22 -34 67 -33 137 3 45 23 55 33 61
62 4 19 5 50 2 68 -4 29 -8 32 -37 31 -18 -1 -47 -4 -66 -8z"/>
<path d="M2439 2477 c-463 -234 -981 -723 -1178 -1111 -95 -186 -90 -308 15
-352 99 -42 217 12 388 176 147 141 286 324 510 670 125 194 406 658 406 672
0 15 -18 8 -141 -55z"/>
<path d="M3645 2491 c-18 -106 38 -193 144 -225 65 -19 144 -20 186 -2 26 11
18 12 -74 12 -100 -1 -103 0 -127 27 -13 15 -24 36 -24 46 0 9 -12 33 -26 52
-14 19 -36 56 -49 82 l-23 49 -7 -41z"/>
<path d="M3691 2484 c8 -10 29 -36 46 -56 17 -20 34 -50 38 -66 11 -53 32 -63
154 -69 107 -6 111 -5 111 15 0 13 -18 33 -49 56 -38 28 -58 36 -91 36 -38 0
-41 -2 -29 -16 13 -16 -49 21 -151 89 -30 20 -40 24 -29 11z"/>
</g>
</svg>
